%TF.GenerationSoftware,KiCad,Pcbnew,9.0.4*%
%TF.CreationDate,2025-08-24T03:11:57+05:30*%
%TF.ProjectId,Arduino Shield,41726475-696e-46f2-9053-6869656c642e,rev?*%
%TF.SameCoordinates,Original*%
%TF.FileFunction,Copper,L2,Bot*%
%TF.FilePolarity,Positive*%
%FSLAX46Y46*%
G04 Gerber Fmt 4.6, Leading zero omitted, Abs format (unit mm)*
G04 Created by KiCad (PCBNEW 9.0.4) date 2025-08-24 03:11:57*
%MOMM*%
%LPD*%
G01*
G04 APERTURE LIST*
%TA.AperFunction,ComponentPad*%
%ADD10C,1.400000*%
%TD*%
%TA.AperFunction,ComponentPad*%
%ADD11O,1.700000X1.700000*%
%TD*%
%TA.AperFunction,ComponentPad*%
%ADD12R,1.700000X1.700000*%
%TD*%
%TA.AperFunction,ComponentPad*%
%ADD13C,1.600000*%
%TD*%
%TA.AperFunction,ViaPad*%
%ADD14C,0.600000*%
%TD*%
%TA.AperFunction,Conductor*%
%ADD15C,0.200000*%
%TD*%
%TA.AperFunction,Conductor*%
%ADD16C,0.400000*%
%TD*%
G04 APERTURE END LIST*
D10*
%TO.P,R1,1*%
%TO.N,VCC*%
X128250000Y-62620000D03*
%TO.P,R1,2*%
%TO.N,SDA{slash}A4*%
X128250000Y-57540000D03*
%TD*%
%TO.P,R2,1*%
%TO.N,VCC*%
X125250000Y-62580000D03*
%TO.P,R2,2*%
%TO.N,SCL{slash}A5*%
X125250000Y-57500000D03*
%TD*%
%TO.P,R5,2*%
%TO.N,Net-(D1-A)*%
X121460000Y-67500000D03*
%TO.P,R5,1*%
%TO.N,VCC*%
X126540000Y-67500000D03*
%TD*%
%TO.P,R4,2*%
%TO.N,Net-(U1-AUX_DA)*%
X146500000Y-80120000D03*
%TO.P,R4,1*%
%TO.N,VCC*%
X146500000Y-75040000D03*
%TD*%
%TO.P,R3,2*%
%TO.N,Net-(U1-AUX_CL)*%
X150000000Y-80080000D03*
%TO.P,R3,1*%
%TO.N,VCC*%
X150000000Y-75000000D03*
%TD*%
D11*
%TO.P,J3,6,Pin_6*%
%TO.N,/A5*%
X163500000Y-97460000D03*
%TO.P,J3,5,Pin_5*%
%TO.N,/A4*%
X160960000Y-97460000D03*
%TO.P,J3,4,Pin_4*%
%TO.N,/A3*%
X158420000Y-97460000D03*
%TO.P,J3,3,Pin_3*%
%TO.N,/A2*%
X155880000Y-97460000D03*
%TO.P,J3,2,Pin_2*%
%TO.N,/A1*%
X153340000Y-97460000D03*
D12*
%TO.P,J3,1,Pin_1*%
%TO.N,/A0*%
X150800000Y-97460000D03*
%TD*%
D11*
%TO.P,J2,10,Pin_10*%
%TO.N,/8*%
X141656000Y-49200000D03*
%TO.P,J2,9,Pin_9*%
%TO.N,/\u002A9*%
X139116000Y-49200000D03*
%TO.P,J2,8,Pin_8*%
%TO.N,/\u002A10*%
X136576000Y-49200000D03*
%TO.P,J2,7,Pin_7*%
%TO.N,/\u002A11*%
X134036000Y-49200000D03*
%TO.P,J2,6,Pin_6*%
%TO.N,/12*%
X131496000Y-49200000D03*
%TO.P,J2,5,Pin_5*%
%TO.N,/13*%
X128956000Y-49200000D03*
%TO.P,J2,4,Pin_4*%
%TO.N,GND*%
X126416000Y-49200000D03*
%TO.P,J2,3,Pin_3*%
%TO.N,/AREF*%
X123876000Y-49200000D03*
%TO.P,J2,2,Pin_2*%
%TO.N,SDA{slash}A4*%
X121336000Y-49200000D03*
D12*
%TO.P,J2,1,Pin_1*%
%TO.N,SCL{slash}A5*%
X118796000Y-49200000D03*
%TD*%
D11*
%TO.P,J1,8,Pin_8*%
%TO.N,VCC1*%
X145720000Y-97460000D03*
%TO.P,J1,7,Pin_7*%
%TO.N,GND*%
X143180000Y-97460000D03*
%TO.P,J1,6,Pin_6*%
X140640000Y-97460000D03*
%TO.P,J1,5,Pin_5*%
%TO.N,+5V*%
X138100000Y-97460000D03*
%TO.P,J1,4,Pin_4*%
%TO.N,+3V3*%
X135560000Y-97460000D03*
%TO.P,J1,3,Pin_3*%
%TO.N,/~{RESET}*%
X133020000Y-97460000D03*
%TO.P,J1,2,Pin_2*%
%TO.N,/IOREF*%
X130480000Y-97460000D03*
D12*
%TO.P,J1,1,Pin_1*%
%TO.N,unconnected-(J1-Pin_1-Pad1)*%
X127940000Y-97460000D03*
%TD*%
D13*
%TO.P,C6,2*%
%TO.N,GND*%
X119000000Y-77250000D03*
%TO.P,C6,1*%
%TO.N,VCC*%
X129000000Y-77250000D03*
%TD*%
%TO.P,C2,2*%
%TO.N,GND*%
X153000000Y-87500000D03*
%TO.P,C2,1*%
%TO.N,VCC*%
X143000000Y-87500000D03*
%TD*%
%TO.P,C1,2*%
%TO.N,VCC*%
X143000000Y-92100000D03*
%TO.P,C1,1*%
%TO.N,GND*%
X153000000Y-92100000D03*
%TD*%
D12*
%TO.P,J4,1,Pin_1*%
%TO.N,/7*%
X145720000Y-49200000D03*
D11*
%TO.P,J4,2,Pin_2*%
%TO.N,/\u002A6*%
X148260000Y-49200000D03*
%TO.P,J4,3,Pin_3*%
%TO.N,/\u002A5*%
X150800000Y-49200000D03*
%TO.P,J4,4,Pin_4*%
%TO.N,/4*%
X153340000Y-49200000D03*
%TO.P,J4,5,Pin_5*%
%TO.N,/\u002A3*%
X155880000Y-49200000D03*
%TO.P,J4,6,Pin_6*%
%TO.N,/2*%
X158420000Y-49200000D03*
%TO.P,J4,7,Pin_7*%
%TO.N,/TX{slash}1*%
X160960000Y-49200000D03*
%TO.P,J4,8,Pin_8*%
%TO.N,/RX{slash}0*%
X163500000Y-49200000D03*
%TD*%
D13*
%TO.P,C4,1*%
%TO.N,Net-(U1-REGOUT)*%
X145650000Y-67500000D03*
%TO.P,C4,2*%
%TO.N,GND*%
X145650000Y-57500000D03*
%TD*%
%TO.P,C3,1*%
%TO.N,Net-(U1-CPOUT)*%
X141500000Y-67500000D03*
%TO.P,C3,2*%
%TO.N,GND*%
X141500000Y-57500000D03*
%TD*%
D14*
%TO.N,SDA{slash}A4*%
X130800367Y-63949633D03*
%TO.N,Net-(U1-CPOUT)*%
X139825735Y-77325735D03*
X136700735Y-77850000D03*
%TO.N,VCC*%
X130450051Y-90800001D03*
X135000000Y-87000000D03*
%TO.N,SCL{slash}A5*%
X133500000Y-82000000D03*
%TO.N,SDA{slash}A4*%
X132934313Y-82565687D03*
%TO.N,GND*%
X134100000Y-79212637D03*
X136660000Y-92500000D03*
X136000000Y-85500000D03*
X140250000Y-79000000D03*
%TO.N,Net-(U1-REGOUT)*%
X141810357Y-77038173D03*
X142100000Y-74801000D03*
%TO.N,Net-(U1-AUX_CL)*%
X141000000Y-84400000D03*
X144500000Y-83000000D03*
%TO.N,Net-(U1-AUX_DA)*%
X140000000Y-85000000D03*
X142403677Y-84096323D03*
%TO.N,VCC*%
X139250000Y-78000000D03*
X140500000Y-82250000D03*
%TD*%
D15*
%TO.N,SDA{slash}A4*%
X132500000Y-82131374D02*
X132934313Y-82565687D01*
X130800367Y-63949633D02*
X132500000Y-65649265D01*
X132500000Y-65649265D02*
X132500000Y-82131374D01*
%TO.N,Net-(U1-CPOUT)*%
X137225000Y-77325735D02*
X139825735Y-77325735D01*
X136700735Y-77850000D02*
X137225000Y-77325735D01*
%TO.N,VCC*%
X135000000Y-87000000D02*
X131199999Y-90800001D01*
X131199999Y-90800001D02*
X130450051Y-90800001D01*
%TO.N,SCL{slash}A5*%
X133000000Y-65250000D02*
X125250000Y-57500000D01*
X133000000Y-81500000D02*
X133000000Y-65250000D01*
X133500000Y-82000000D02*
X133000000Y-81500000D01*
%TO.N,GND*%
X136000000Y-86000000D02*
X136000000Y-85500000D01*
D16*
X136590000Y-93410000D02*
X136590000Y-92570000D01*
X140640000Y-97460000D02*
X136590000Y-93410000D01*
D15*
X136000000Y-81856644D02*
X138856644Y-79000000D01*
X136590000Y-93410000D02*
X136000000Y-92820000D01*
X136000000Y-92820000D02*
X136000000Y-86000000D01*
X134000000Y-79312637D02*
X134100000Y-79212637D01*
X138856644Y-79000000D02*
X140250000Y-79000000D01*
X136000000Y-86000000D02*
X136000000Y-81856644D01*
D16*
X136590000Y-92570000D02*
X136660000Y-92500000D01*
D15*
X134000000Y-79856644D02*
X134000000Y-79312637D01*
X136000000Y-81856644D02*
X134000000Y-79856644D01*
%TO.N,Net-(U1-REGOUT)*%
X142000000Y-76700000D02*
X141810357Y-76889643D01*
X142000000Y-74901000D02*
X142000000Y-76700000D01*
X142100000Y-74801000D02*
X142000000Y-74901000D01*
X141810357Y-76889643D02*
X141810357Y-77038173D01*
%TO.N,Net-(U1-AUX_CL)*%
X141000000Y-84400000D02*
X142400000Y-83000000D01*
X142400000Y-83000000D02*
X144500000Y-83000000D01*
%TO.N,Net-(U1-AUX_DA)*%
X140000000Y-85000000D02*
X141500000Y-85000000D01*
X141500000Y-85000000D02*
X142403677Y-84096323D01*
%TO.N,VCC*%
X140851000Y-78751057D02*
X140851000Y-81899000D01*
X140851000Y-81899000D02*
X140500000Y-82250000D01*
X139250000Y-78000000D02*
X140099943Y-78000000D01*
X140099943Y-78000000D02*
X140851000Y-78751057D01*
%TD*%
M02*
